# xmcd
#
# Track frame offsets:
#	150
#	21623
#	36025
#	51617
#	72004
#	91085
#	110598
#	130556
#	154170
#	179840
#	199644
#	214406
#
# Disc length: 3199
#
# Revision: 1
# Processed by: cddbd v1.5.1PL0 Copyright (c) Steve Scherf et al.
# Submitted via: CDex 1.50Beta7
# Normalized: r0:TDELIM( - )
#
DISCID=b00c7d0c
DTITLE=Various Artist - Die Geschichte des blues - by Winterthur Hangar 21
DYEAR=1997
DGENRE=Blues
TTITLE0=George Jackson - Down Home Blues
TTITLE1=Lowell Fulson - Reconsider Baby
TTITLE2=Peter Chatman, aka Memphis Slim - Everyday I Have The Blues
TTITLE3=Willie Dixon - I'm Your Hoochie Coochie Man
TTITLE4=McKinley Morganfield, aka Muddy Waters - Got My Mojo Working
TTITLE5=Robert Johnson - Sweet Home Chicago
TTITLE6=William "Big Bill" Broonzy - Just A Dream
TTITLE7=Porter Grainger/Everett Robbins - T'Ain't Nobody's Bus'ness
TTITLE8=Aaron "T-Bone" Walker - (They Call It) Stormy Monday
TTITLE9=Riley B.B. King/Joe Josea - Rock Me Baby
TTITLE10=Elmore James - It Hurts Me Too
TTITLE11=Traditional - Careless Love
EXTD=YEAR: 1997
EXTT0=
EXTT1=
EXTT2=
EXTT3=
EXTT4=
EXTT5=
EXTT6=
EXTT7=
EXTT8=
EXTT9=
EXTT10=
EXTT11=
PLAYORDER=
